<svg width="32" height="30" viewBox="0 0 32 30" fill="none" xmlns="http://www.w3.org/2000/svg">
<path d="M31.453 9.16234L22.2535 8.40184L18.6562 0.00817871L15.0588 8.40184L5.85929 9.16234L12.8265 15.1759L10.7505 24.0907L18.6562 19.3587L26.5618 24.0907L24.4716 15.1759L31.453 9.16234ZM21.699 15.8238L22.2677 18.232L20.1207 16.9504L18.6562 16.0773L17.1916 16.9504L15.0446 18.232L15.5991 15.8238L15.9973 14.1619L14.7034 13.0493L12.798 11.4157L15.3005 11.2044L17.0068 11.0636L17.6751 9.50034L18.6562 7.21884L19.6373 9.50034L20.3055 11.0636L22.0118 11.2044L24.5001 11.4157L22.609 13.0493L21.3008 14.1619L21.699 15.8238ZM0.399291 15.4998C-0.0258493 14.7957 0.156151 13.9366 0.811635 13.5141L4.69335 10.9791L6.9257 12.8944L2.3757 15.866C2.13398 16.0209 1.86382 16.1054 1.59367 16.1054C1.13867 16.1054 0.683666 15.8801 0.399291 15.4998ZM0.811635 26.9918L9.14382 21.5698L8.70304 23.6118L8.2196 25.5413L2.3757 29.3578C2.13398 29.5128 1.86382 29.5832 1.59367 29.5832C1.13867 29.5832 0.683666 29.3578 0.399291 28.9494C0.195229 28.6347 0.124101 28.2532 0.201224 27.8871C0.278346 27.521 0.497549 27.1995 0.811635 26.9918ZM9.15804 14.7957L10.4662 15.9364L10.0823 17.6123L2.3757 22.6119C2.13398 22.7668 1.86382 22.8373 1.59367 22.8373C1.13867 22.8373 0.683666 22.626 0.399291 22.2035C0.194855 21.8913 0.123471 21.5117 0.200732 21.1475C0.277994 20.7834 0.497621 20.4643 0.811635 20.26L9.15804 14.7957Z" fill="#242034"/>
</svg>
