<svg width="66" height="66" viewBox="0 0 66 66" fill="none" xmlns="http://www.w3.org/2000/svg">
<g clip-path="url(#clip0_2003_11963)">
<path d="M47.9907 18.3609C49.3907 16.9672 49.3907 14.6959 47.9907 13.3022L42.8401 8.14764L42.8475 8.15502C41.4843 6.79079 39.1411 4.4458 35.8253 1.13479C34.2632 -0.391673 31.7359 -0.376924 30.1885 1.17166L1.17152 30.1891C0.800273 30.5581 0.505634 30.997 0.304573 31.4805C0.103511 31.9639 0 32.4824 0 33.0061C0 33.5297 0.103511 34.0482 0.304573 34.5316C0.505634 35.0151 0.800273 35.454 1.17152 35.823L30.1811 64.8331C30.929 65.5803 31.9427 66 32.9995 66C34.0564 66 35.07 65.5803 35.818 64.8331L47.9833 52.6656C49.3833 51.2719 49.3833 49.0007 47.9833 47.607C47.3108 46.9373 46.4008 46.5614 45.4522 46.5614C44.5036 46.5614 43.5936 46.9373 42.9212 47.607L33.7106 56.8394C33.3274 57.2229 32.7306 57.2229 32.3474 56.8394L9.17366 33.6697C8.7905 33.2863 8.7905 32.689 9.17366 32.3055L32.3401 9.13579C32.3695 9.10629 32.4064 9.08417 32.4359 9.05467C32.819 8.75233 33.3495 8.78182 33.7032 9.13579L42.9285 18.3609C44.3285 19.762 46.598 19.762 47.9907 18.3609ZM25.3179 33.1535C25.3179 35.2305 26.1432 37.2225 27.6121 38.6912C29.081 40.1598 31.0732 40.9849 33.1506 40.9849C35.2279 40.9849 37.2202 40.1598 38.6891 38.6912C40.158 37.2225 40.9833 35.2305 40.9833 33.1535C40.9833 31.0765 40.158 29.0846 38.6891 27.6159C37.2202 26.1472 35.2279 25.3221 33.1506 25.3221C31.0732 25.3221 29.081 26.1472 27.6121 27.6159C26.1432 29.0846 25.3179 31.0765 25.3179 33.1535ZM64.8276 30.3071L55.7717 21.2885C54.3717 19.8947 52.1023 19.8947 50.7096 21.2958C50.3768 21.6275 50.1127 22.0216 49.9324 22.4557C49.7522 22.8897 49.6594 23.3551 49.6594 23.8252C49.6594 24.2952 49.7522 24.7606 49.9324 25.1947C50.1127 25.6287 50.3768 26.0229 50.7096 26.3545L56.8254 32.4677C57.2086 32.8512 57.2086 33.4485 56.8254 33.832L50.798 39.8567C50.4652 40.1883 50.2011 40.5825 50.0209 41.0165C49.8406 41.4506 49.7479 41.916 49.7479 42.386C49.7479 42.8561 49.8406 43.3215 50.0209 43.7555C50.2011 44.1896 50.4652 44.5837 50.798 44.9154C51.4705 45.585 52.3805 45.9609 53.3291 45.9609C54.2777 45.9609 55.1877 45.585 55.8602 44.9154L64.8349 35.941C65.2049 35.571 65.4983 35.1316 65.6982 34.648C65.8981 34.1643 66.0007 33.6459 66 33.1225C65.9993 32.5991 65.8954 32.081 65.6942 31.5978C65.493 31.1147 65.1985 30.6761 64.8276 30.3071Z" fill="#413018"/>
</g>
<defs>
<clipPath id="clip0_2003_11963">
<rect width="66" height="66" fill="white"/>
</clipPath>
</defs>
</svg>
