<svg width="20" height="13" viewBox="0 0 20 13" fill="none" xmlns="http://www.w3.org/2000/svg">
<path d="M6.20165 0.312256C6.72936 0.312256 7.21742 0.35416 7.66337 0.478197C8.11014 0.561168 8.47598 0.72711 8.80053 0.934118C9.1259 1.1414 9.36952 1.43166 9.53138 1.80489C9.69407 2.17784 9.77583 2.6346 9.77583 3.13159C9.77583 3.71238 9.65361 4.20937 9.36952 4.58232C9.1259 4.9561 8.7196 5.28715 8.23236 5.53606C8.92275 5.74391 9.45045 6.11686 9.77583 6.61384C10.1012 7.11083 10.3035 7.73353 10.3035 8.43836C10.3035 9.01916 10.1813 9.51614 9.97816 9.931C9.77583 10.3459 9.45045 10.7188 9.08461 10.9677C8.68705 11.2342 8.2478 11.4303 7.78559 11.5477C7.29835 11.6725 6.81111 11.7555 6.32388 11.7555H0.880859V0.312256H6.20165ZM5.87628 4.95527C6.32305 4.95527 6.68889 4.83123 6.97298 4.62422C7.25706 4.41721 7.37928 4.04343 7.37928 3.58751C7.37928 3.33859 7.33799 3.08968 7.25706 2.92458C7.17613 2.75947 7.05391 2.63376 6.89205 2.50972C6.72655 2.41539 6.54855 2.34568 6.36352 2.30272C6.16036 2.26081 5.95804 2.26081 5.71359 2.26081H3.35834V4.9561L5.87628 4.95527ZM5.9985 9.84803C6.24212 9.84803 6.48574 9.80612 6.68889 9.76506C6.89204 9.72315 7.0952 9.64102 7.25706 9.51614C7.42189 9.39408 7.5602 9.23889 7.66337 9.06022C7.7443 8.85322 7.82605 8.6043 7.82605 8.31433C7.82605 7.73353 7.66337 7.31868 7.33882 7.0287C7.01344 6.77979 6.56667 6.65575 6.03897 6.65575H3.35834V9.84887L5.9985 9.84803ZM13.8372 9.80612C14.1621 10.138 14.6493 10.3039 15.299 10.3039C15.7457 10.3039 16.152 10.1799 16.4766 9.9729C16.802 9.72371 17.0051 9.4748 17.086 9.22617H19.0763C18.7509 10.221 18.2637 10.9258 17.6146 11.3817C16.9638 11.7966 16.1925 12.0455 15.2585 12.0455C14.661 12.0464 14.0686 11.9338 13.5119 11.7136C13.0107 11.5239 12.564 11.2105 12.212 10.8018C11.834 10.4207 11.5551 9.95049 11.4002 9.43317C11.1971 8.89428 11.1153 8.31433 11.1153 7.65056C11.1153 7.0287 11.1971 6.44874 11.4002 5.90901C11.5951 5.38906 11.8845 4.91088 12.2533 4.49935C12.6183 4.1264 13.0651 3.79535 13.5523 3.58751C14.0947 3.36651 14.674 3.25382 15.2585 3.25562C15.9489 3.25562 16.5583 3.3805 17.086 3.67048C17.6146 3.96046 18.02 4.29234 18.3446 4.79016C18.67 5.24608 18.9144 5.78497 19.0763 6.36577C19.1572 6.94573 19.1977 7.52652 19.1572 8.18945H13.2682C13.2682 8.85322 13.5119 9.47508 13.8372 9.80696M16.3956 5.45393C16.1116 5.16395 15.6648 4.99801 15.1363 4.99801C14.8264 4.99329 14.5199 5.06429 14.2427 5.20502C13.9991 5.32989 13.8372 5.49583 13.6746 5.66178C13.5241 5.8214 13.425 6.02366 13.3905 6.24173C13.3492 6.44958 13.3087 6.61468 13.3087 6.78062H16.9638C16.8829 6.15876 16.6797 5.74475 16.3956 5.45393ZM12.8215 1.10006H17.3701V2.21975H12.8223L12.8215 1.10006Z" fill="#F1DEBB"/>
</svg>
