<svg width="22" height="23" viewBox="0 0 22 23" fill="none" xmlns="http://www.w3.org/2000/svg">
<g clip-path="url(#clip0_2003_3203)">
<path fill-rule="evenodd" clip-rule="evenodd" d="M10.655 1.71997C15.9455 1.71997 20.2339 6.07211 20.2339 11.4411C20.2339 16.8101 15.9455 21.1622 10.655 21.1622C5.36463 21.1622 1.07617 16.8101 1.07617 11.4411C1.07617 6.07211 5.36463 1.71997 10.655 1.71997ZM12.2039 13.3698C9.76228 14.0994 7.62766 15.6295 6.13382 17.7209C7.44508 18.6964 9.02924 19.2209 10.655 19.218C11.6496 19.2186 12.6347 19.0229 13.5555 18.6415C13.2531 16.8482 12.801 15.0843 12.2039 13.3688V13.3698ZM14.0986 12.978C14.6082 14.478 15.0182 16.0256 15.319 17.613C16.7246 16.5197 17.7136 14.966 18.1179 13.2162C16.8021 12.8994 15.4418 12.8188 14.0986 12.978ZM10.9913 10.3834C8.42825 11.3012 5.69594 11.628 2.9929 11.34L2.99195 11.4411C2.99195 13.3143 3.64523 15.033 4.73243 16.3755C6.43374 14.0837 8.8044 12.3953 11.5066 11.5509C11.3425 11.1586 11.1707 10.7697 10.9913 10.3844V10.3834ZM16.8698 6.89063C15.6294 7.99044 14.2477 8.91428 12.7624 9.63684C12.9865 10.1229 13.1998 10.6145 13.4023 11.1115C15.0307 10.8588 16.707 10.9113 18.3162 11.268C18.2843 9.69353 17.7796 8.1664 16.8698 6.89063ZM7.37332 4.41272C6.37216 4.8956 5.48582 5.59263 4.77517 6.45597C4.06451 7.3193 3.54637 8.32849 3.25632 9.41423C5.57001 9.65182 7.90703 9.38671 10.1119 8.63654C9.30998 7.15767 8.39427 5.74534 7.37332 4.41272ZM10.655 3.66419C10.1946 3.66419 9.74601 3.70405 9.30921 3.78376C10.2683 5.09134 11.1336 6.46718 11.8984 7.90065C13.2223 7.26106 14.4551 6.44293 15.5633 5.46843C14.1869 4.3004 12.4492 3.66162 10.655 3.66419Z" fill="#F1DEBB"/>
</g>
<defs>
<clipPath id="clip0_2003_3203">
<rect width="21.0586" height="21.3713" fill="white" transform="translate(0.125 0.828613)"/>
</clipPath>
</defs>
</svg>
