<svg width="21" height="21" viewBox="0 0 21 21" fill="none" xmlns="http://www.w3.org/2000/svg">
<path d="M19.8099 14.64V5.58864C19.8099 4.7539 19.1459 4.08008 18.3234 4.08008H4.43961C3.61709 4.08008 2.95312 4.7539 2.95312 5.58864V14.64C2.95312 15.4747 3.61709 16.1486 4.43961 16.1486H18.3234C19.1459 16.1486 19.8099 15.4747 19.8099 14.64ZM18.5117 5.47801C18.8387 5.80989 18.6603 6.15183 18.482 6.3228L14.4585 10.064L18.3234 14.1472C18.4423 14.288 18.5216 14.5093 18.3829 14.6601C18.254 14.821 17.9567 14.811 17.8279 14.7104L13.4973 10.9591L11.3765 12.9202L9.26574 10.9591L4.93511 14.7104C4.80628 14.811 4.50898 14.821 4.38015 14.6601C4.24141 14.5093 4.32069 14.288 4.43961 14.1472L8.30447 10.064L4.28105 6.3228C4.10267 6.15183 3.9243 5.80989 4.25132 5.47801C4.57835 5.14613 4.91529 5.30704 5.19276 5.54841L11.3765 10.6172L17.5702 5.54841C17.8477 5.30704 18.1847 5.14613 18.5117 5.47801Z" fill="#F1DEBB"/>
</svg>
