<svg width="19" height="19" viewBox="0 0 19 19" fill="none" xmlns="http://www.w3.org/2000/svg">
<path d="M10.445 0.0585331C11.123 0.055893 11.8009 0.0628077 12.4786 0.0792751L12.6589 0.0858748C12.867 0.0934174 13.0723 0.102846 13.3203 0.114159C14.3088 0.1613 14.9833 0.319694 15.5751 0.55257C16.1882 0.792045 16.7048 1.11637 17.2213 1.64058C17.6936 2.11162 18.0591 2.6814 18.2925 3.31031C18.5219 3.91089 18.678 4.59631 18.7245 5.59947C18.7356 5.85026 18.7449 6.05957 18.7523 6.27076L18.7579 6.45366C18.7744 7.14116 18.7815 7.82885 18.7793 8.51655L18.7802 9.21989V10.455C18.7825 11.143 18.7754 11.831 18.7588 12.5188L18.7533 12.7017C18.7458 12.9129 18.7365 13.1213 18.7254 13.373C18.6789 14.3762 18.521 15.0606 18.2925 15.6612C18.0599 16.2908 17.6943 16.861 17.2213 17.3319C16.7568 17.8111 16.195 18.1821 15.5751 18.419C14.9833 18.6518 14.3088 18.8102 13.3203 18.8574C13.0723 18.8687 12.867 18.8781 12.6589 18.8857L12.4786 18.8913C11.8009 18.9081 11.123 18.9153 10.445 18.913L9.75196 18.9139H8.53587C7.85793 18.9163 7.17999 18.909 6.50224 18.8923L6.32201 18.8866C6.10147 18.8785 5.88098 18.8691 5.66055 18.8583C4.67207 18.8112 3.9976 18.6509 3.40488 18.419C2.78493 18.1826 2.22339 17.8116 1.75958 17.3319C1.28675 16.8608 0.920884 16.2906 0.687492 15.6612C0.458023 15.0606 0.301947 14.3762 0.255496 13.373C0.245149 13.1493 0.235859 12.9255 0.227625 12.7017L0.22298 12.5188C0.205853 11.831 0.19811 11.143 0.199755 10.455V8.51655C0.197162 7.82886 0.203975 7.14116 0.220193 6.45366L0.226696 6.27076C0.234129 6.05957 0.243419 5.85026 0.254567 5.59947C0.301018 4.59537 0.457094 3.91183 0.686562 3.31031C0.920093 2.68109 1.28668 2.11147 1.76051 1.64152C2.224 1.1614 2.78519 0.789757 3.40488 0.55257C3.9976 0.319694 4.67114 0.1613 5.66055 0.114159L6.32201 0.0858748L6.50224 0.0811609C7.17967 0.0637874 7.8573 0.0559297 8.53494 0.0575903L10.445 0.0585331ZM9.48998 4.77262C8.87451 4.76379 8.26344 4.87918 7.6923 5.1121C7.12115 5.34502 6.60132 5.69081 6.16301 6.12939C5.72469 6.56796 5.37664 7.09057 5.13908 7.66685C4.90151 8.24312 4.77918 8.86156 4.77918 9.48624C4.77918 10.1109 4.90151 10.7294 5.13908 11.3056C5.37664 11.8819 5.72469 12.4045 6.16301 12.8431C6.60132 13.2817 7.12115 13.6275 7.6923 13.8604C8.26344 14.0933 8.87451 14.2087 9.48998 14.1999C10.7219 14.1999 11.9034 13.7032 12.7746 12.8191C13.6457 11.9351 14.1351 10.736 14.1351 9.48577C14.1351 8.23551 13.6457 7.03646 12.7746 6.1524C11.9034 5.26834 10.7219 4.77262 9.48998 4.77262ZM9.48998 6.65826C9.8602 6.65133 10.2281 6.71935 10.5721 6.85833C10.9161 6.99731 11.2294 7.20447 11.4937 7.46771C11.7579 7.73094 11.9678 8.04498 12.1112 8.39148C12.2545 8.73797 12.3283 9.10997 12.3284 9.48576C12.3285 9.86154 12.2547 10.2336 12.1115 10.5801C11.9683 10.9267 11.7585 11.2408 11.4943 11.5041C11.2302 11.7674 10.9169 11.9747 10.573 12.1138C10.229 12.2529 9.86113 12.321 9.49091 12.3142C8.75173 12.3142 8.04283 12.0162 7.52015 11.4858C6.99748 10.9553 6.70384 10.2359 6.70384 9.48577C6.70384 8.73561 6.99748 8.01618 7.52015 7.48575C8.04283 6.95531 8.75173 6.65731 9.49091 6.65731L9.48998 6.65826ZM14.3673 3.35839C14.0676 3.37057 13.7842 3.49996 13.5764 3.71947C13.3686 3.93897 13.2525 4.23157 13.2525 4.53597C13.2525 4.84038 13.3686 5.13297 13.5764 5.35248C13.7842 5.57199 14.0676 5.70138 14.3673 5.71355C14.6753 5.71355 14.9707 5.58939 15.1885 5.36837C15.4063 5.14736 15.5286 4.84759 15.5286 4.53503C15.5286 4.22247 15.4063 3.92271 15.1885 3.70169C14.9707 3.48067 14.6753 3.35651 14.3673 3.35651V3.35839Z" fill="#F1DEBB"/>
</svg>
