<svg width="19" height="18" viewBox="0 0 19 18" fill="none" xmlns="http://www.w3.org/2000/svg">
<path d="M4.14661 2.27111C4.14635 2.78972 3.9431 3.28699 3.58157 3.65352C3.22005 4.02005 2.72985 4.22582 2.21883 4.22556C1.7078 4.2253 1.21781 4.01903 0.85664 3.65214C0.495472 3.28524 0.292713 2.78776 0.292969 2.26915C0.293225 1.75054 0.496473 1.25327 0.858003 0.886739C1.21953 0.520207 1.70973 0.314438 2.22075 0.314698C2.73178 0.314957 3.22177 0.521224 3.58294 0.888121C3.9441 1.25502 4.14686 1.75249 4.14661 2.27111ZM4.20441 5.67356H0.350774V17.9146H4.20441V5.67356ZM10.2932 5.67356H6.45879V17.9146H10.2546V11.491C10.2546 7.91253 14.8501 7.5801 14.8501 11.491V17.9146H18.6556V10.1613C18.6556 4.12877 11.8539 4.35364 10.2546 7.31612L10.2932 5.67356Z" fill="#F1DEBB"/>
</svg>
