<svg width="16" height="23" viewBox="0 0 16 23" fill="none" xmlns="http://www.w3.org/2000/svg">
<path d="M8.87157 0.912842C4.89986 0.912842 0.974609 3.91997 0.974609 8.78676C0.974609 11.8818 2.50755 13.6404 3.4366 13.6404C3.81984 13.6404 4.04049 12.427 4.04049 12.084C4.04049 11.6752 3.12305 10.8047 3.12305 9.1033C3.12305 5.56861 5.49213 3.06267 8.55801 3.06267C11.1942 3.06267 13.1452 4.76407 13.1452 7.8899C13.1452 10.2244 12.3207 14.6032 9.64965 14.6032C8.68576 14.6032 7.86122 13.8118 7.86122 12.6776C7.86122 11.0157 8.88318 9.40665 8.88318 7.69206C8.88318 4.78166 5.24826 5.30922 5.24826 8.82633C5.24826 9.56492 5.32955 10.3826 5.61988 11.0553C5.08567 13.6667 3.99403 17.5575 3.99403 20.2481C3.99403 21.079 4.09855 21.8968 4.16823 22.7277C4.29985 22.8948 4.23404 22.8772 4.43534 22.7936C6.38635 19.7601 6.31667 19.1666 7.19927 15.1967C7.67541 16.2254 8.90641 16.7794 9.88191 16.7794C13.993 16.7794 15.8395 12.2291 15.8395 8.1273C15.8395 3.7617 12.5181 0.912842 8.87157 0.912842Z" fill="#F1DEBB"/>
</svg>
