<svg width="21" height="21" viewBox="0 0 21 21" fill="none" xmlns="http://www.w3.org/2000/svg">
<path d="M17.4267 4.18097C19.706 6.46057 20.5648 9.64531 20.0253 12.6177C20.4767 13.4223 20.73 14.361 20.73 15.3555C20.73 16.8373 20.1499 18.2585 19.1175 19.3063C18.085 20.3541 16.6846 20.9427 15.2245 20.9427C14.2445 20.9427 13.3196 20.6857 12.5268 20.2276C9.59784 20.7751 6.45971 19.9035 4.21346 17.5904C1.93418 15.3108 1.07532 12.126 1.61486 9.15363C1.16341 8.34906 0.910156 7.4104 0.910156 6.41587C0.910156 4.93404 1.4902 3.5129 2.52268 2.46508C3.55516 1.41727 4.95551 0.828613 6.41566 0.828613C7.39564 0.828613 8.32057 1.08563 9.11336 1.54378C12.0423 0.996231 15.1804 1.86784 17.4267 4.18097ZM10.8641 16.6517C14.0243 16.6517 15.5988 15.1096 15.5988 13.0312C15.5988 11.7014 14.9822 10.2823 12.5928 9.7347L10.4016 9.24302C9.56481 9.05306 8.61786 8.79604 8.61786 8.00265C8.61786 7.19809 9.27852 6.63936 10.4897 6.63936C12.9452 6.63936 12.714 8.34906 13.9362 8.34906C14.5748 8.34906 15.1254 7.96913 15.1254 7.30983C15.1254 5.77892 12.714 4.62795 10.6659 4.62795C8.4527 4.62795 6.08533 5.58896 6.08533 8.13675C6.08533 9.36594 6.51476 10.6734 8.89314 11.2768L11.8551 12.0367C12.747 12.2601 12.9672 12.763 12.9672 13.2323C12.9672 13.9922 12.2185 14.7409 10.8641 14.7409C8.21046 14.7409 8.57382 12.6736 7.1534 12.6736C6.51476 12.6736 6.0523 13.1206 6.0523 13.7575C6.0523 14.9979 7.51676 16.6517 10.8641 16.6517Z" fill="#F1DEBB"/>
</svg>
