<svg width="18" height="16" viewBox="0 0 18 16" fill="none" xmlns="http://www.w3.org/2000/svg">
<path d="M16.083 0.891211C16.083 0.891211 17.6872 0.256358 17.553 1.79802C17.5088 2.43287 17.1078 4.65507 16.7957 7.05828L15.7262 14.1778C15.7262 14.1778 15.637 15.2208 14.8347 15.4023C14.0329 15.5833 12.8296 14.7674 12.6067 14.586C12.4283 14.4498 9.26455 12.4091 8.15051 11.4117C7.83835 11.1394 7.4816 10.5954 8.19511 9.96059L12.8742 5.42569C13.409 4.88093 13.9437 3.61123 11.7156 5.15331L5.47649 9.46109C5.47649 9.46109 4.76339 9.91491 3.42679 9.50676L0.529795 8.59953C0.529795 8.59953 -0.53965 7.91942 1.28749 7.23931C5.74406 5.10805 11.2255 2.93154 16.0826 0.890792" fill="#F1DEBB"/>
</svg>
