<svg width="23" height="24" viewBox="0 0 23 24" fill="none" xmlns="http://www.w3.org/2000/svg">
<path d="M18.8417 4.98402C17.9284 4.05285 16.8408 3.31452 15.6421 2.81207C14.4434 2.30962 13.1577 2.05309 11.8599 2.05743C6.4219 2.05743 1.98983 6.53281 1.98983 12.0239C1.98983 13.7839 2.44798 15.4936 3.30452 17.0022L1.91016 22.1715L7.139 20.7836C8.58316 21.5781 10.2066 22.0005 11.8599 22.0005C17.2979 22.0005 21.73 17.5251 21.73 12.034C21.73 9.36889 20.7041 6.86469 18.8417 4.98402ZM11.8599 20.3109C10.3859 20.3109 8.94171 19.9087 7.67683 19.1544L7.37804 18.9734L4.27061 19.798L5.09726 16.7407L4.89807 16.4289C4.07893 15.1085 3.64407 13.5821 3.64315 12.0239C3.64315 7.45806 7.32824 3.73695 11.8499 3.73695C14.0411 3.73695 16.1027 4.60186 17.6465 6.17075C18.411 6.93897 19.0169 7.85284 19.4289 8.85933C19.8409 9.86582 20.051 10.9449 20.0468 12.034C20.0667 16.5999 16.3816 20.3109 11.8599 20.3109ZM16.3617 14.1158C16.1127 13.9951 14.8976 13.3917 14.6785 13.3012C14.4494 13.2207 14.2901 13.1805 14.1208 13.4219C13.9514 13.6733 13.4833 14.2365 13.3439 14.3974C13.2045 14.5684 13.0551 14.5885 12.8061 14.4578C12.5571 14.3371 11.7603 14.0655 10.8241 13.2207C10.0871 12.557 9.59905 11.7424 9.44965 11.4909C9.31022 11.2395 9.42973 11.1088 9.55921 10.978C9.66877 10.8674 9.8082 10.6864 9.92772 10.5456C10.0472 10.4048 10.097 10.2941 10.1767 10.1332C10.2564 9.96226 10.2166 9.82146 10.1568 9.70077C10.097 9.58009 9.59905 8.35313 9.39986 7.85028C9.20066 7.36754 8.99151 7.42788 8.84211 7.41783H8.36405C8.19473 7.41783 7.93578 7.47817 7.70671 7.7296C7.48759 7.98102 6.85017 8.58444 6.85017 9.8114C6.85017 11.0384 7.73659 12.2251 7.8561 12.386C7.97562 12.557 9.59905 15.0712 12.0691 16.1473C12.6567 16.4088 13.1148 16.5597 13.4734 16.6703C14.061 16.8614 14.5988 16.8312 15.0271 16.7709C15.5052 16.7005 16.4912 16.1674 16.6904 15.5841C16.8995 15.0008 16.8995 14.508 16.8298 14.3974C16.7601 14.2868 16.6107 14.2365 16.3617 14.1158Z" fill="#F1DEBB"/>
</svg>
