<svg width="22" height="22" viewBox="0 0 22 22" fill="none" xmlns="http://www.w3.org/2000/svg">
<path d="M7.01263 4.82227C7.57175 4.82227 8.08888 4.86602 8.56138 4.99552C9.03475 5.08214 9.42238 5.25539 9.76625 5.47152C10.111 5.68793 10.3691 5.99097 10.5406 6.38064C10.713 6.77002 10.7996 7.24689 10.7996 7.76577C10.7996 8.37214 10.6701 8.89102 10.3691 9.28039C10.111 9.67064 9.6805 10.0163 9.16425 10.2761C9.89575 10.4931 10.4549 10.8825 10.7996 11.4014C11.1444 11.9203 11.3588 12.5704 11.3588 13.3063C11.3588 13.9126 11.2293 14.4315 11.014 14.8646C10.7996 15.2978 10.4549 15.6871 10.0673 15.947C9.64601 16.2252 9.18061 16.43 8.69088 16.5525C8.17463 16.6829 7.65838 16.7695 7.14213 16.7695H1.375V4.82227H7.01263ZM6.66788 9.66977C7.14125 9.66977 7.52888 9.54027 7.82988 9.32414C8.13088 9.10802 8.26038 8.71777 8.26038 8.24177C8.26038 7.98189 8.21663 7.72202 8.13088 7.54964C8.04513 7.37727 7.91563 7.24602 7.74413 7.11652C7.56877 7.01803 7.38018 6.94525 7.18413 6.90039C6.96888 6.85664 6.7545 6.85664 6.4955 6.85664H4V9.67064L6.66788 9.66977ZM6.79738 14.778C7.0555 14.778 7.31363 14.7343 7.52888 14.6914C7.74413 14.6476 7.95938 14.5619 8.13088 14.4315C8.30553 14.3041 8.45207 14.142 8.56138 13.9555C8.64713 13.7394 8.73375 13.4795 8.73375 13.1768C8.73375 12.5704 8.56138 12.1373 8.2175 11.8345C7.87275 11.5746 7.39938 11.4451 6.84025 11.4451H4V14.7789L6.79738 14.778ZM15.1029 14.7343C15.447 15.0808 15.9633 15.254 16.6516 15.254C17.125 15.254 17.5555 15.1245 17.8994 14.9084C18.2441 14.6482 18.4594 14.3883 18.5451 14.1288H20.6539C20.3091 15.1674 19.7929 15.9033 19.1051 16.3793C18.4156 16.8124 17.5984 17.0723 16.6088 17.0723C15.9757 17.0732 15.348 16.9557 14.7581 16.7258C14.2271 16.5277 13.7538 16.2005 13.3809 15.7738C12.9804 15.3759 12.6849 14.885 12.5208 14.3449C12.3055 13.7823 12.2189 13.1768 12.2189 12.4838C12.2189 11.8345 12.3055 11.229 12.5208 10.6655C12.7272 10.1227 13.0338 9.62342 13.4246 9.19377C13.8114 8.80439 14.2848 8.45877 14.801 8.24177C15.3757 8.01103 15.9895 7.89338 16.6088 7.89527C17.3403 7.89527 17.986 8.02564 18.5451 8.32839C19.1051 8.63114 19.5348 8.97764 19.8786 9.49739C20.2234 9.97339 20.4824 10.536 20.6539 11.1424C20.7396 11.7479 20.7825 12.3543 20.7396 13.0464H14.5C14.5 13.7394 14.7581 14.3886 15.1029 14.7351M17.8136 10.1904C17.5126 9.88764 17.0393 9.71439 16.4793 9.71439C16.1509 9.70947 15.8262 9.7836 15.5325 9.93052C15.2744 10.0609 15.1029 10.2341 14.9305 10.4074C14.7711 10.574 14.6661 10.7852 14.6295 11.0129C14.5858 11.2299 14.5429 11.4023 14.5429 11.5755H18.4156C18.3299 10.9263 18.1146 10.494 17.8136 10.1904ZM14.0266 5.64477H18.8461V6.81377H14.0275L14.0266 5.64477Z" fill="#613AF7"/>
</svg>
