<svg width="23" height="29" viewBox="0 0 23 29" fill="none" xmlns="http://www.w3.org/2000/svg">
<path d="M8.04906 17.5333L11.4995 15.4479L14.9499 17.5333L14.0399 13.59L17.0732 10.9737L13.092 10.6325L11.4995 6.91664L9.90698 10.6325L5.92573 10.9737L8.95906 13.59L8.04906 17.5333ZM0.882812 28.15V3.88331C0.882812 3.04914 1.18008 2.3353 1.77461 1.74178C2.36915 1.14825 3.08299 0.850987 3.91615 0.849976H19.0828C19.917 0.849976 20.6313 1.14724 21.2259 1.74178C21.8204 2.33631 22.1172 3.05015 22.1161 3.88331V28.15L11.4995 23.6L0.882812 28.15ZM3.91615 23.5241L11.4995 20.2633L19.0828 23.5241V3.88331H3.91615V23.5241Z" fill="currentColor"/>
</svg>
