<svg width="65" height="66" viewBox="0 0 65 66" fill="none" xmlns="http://www.w3.org/2000/svg">
<g clip-path="url(#clip0_2003_11956)">
<path d="M13.8667 4.75224V14.2562H4.62222V4.75224H13.8667ZM0 0.000244141V19.0082H18.4889V0.000244141H0ZM36.9778 11.8802V21.3842H27.7333V11.8802H36.9778ZM23.1111 7.12824V26.1362H41.6V7.12824H23.1111ZM13.8667 33.2642V42.7682H4.62222V33.2642H13.8667ZM0 28.5122V47.5202H18.4889V28.5122H0Z" fill="#4B4018"/>
<path d="M46.2802 18.48V32.736H32.2402V46.992H18.2002V66H65.0002V18.48H46.2802ZM36.9202 37.488H46.2802V46.992H36.9202V37.488ZM32.2402 61.248H22.8802V51.744H32.2402V61.248ZM46.2802 61.248H36.9202V51.744H46.2802V61.248ZM60.3202 61.248H50.9602V51.744H60.3202V61.248ZM60.3202 46.992H50.9602V37.488H60.3202V46.992ZM50.9602 32.736V23.232H60.3202V32.736H50.9602Z" fill="#4B4018"/>
</g>
<defs>
<clipPath id="clip0_2003_11956">
<rect width="65" height="66" fill="white"/>
</clipPath>
</defs>
</svg>
