<svg width="35" height="35" viewBox="0 0 35 35" fill="none" xmlns="http://www.w3.org/2000/svg">
<path d="M5.24229 29.6144L14.2049 20.6518M25.4913 16.6662L22.8084 24.7162C22.7654 24.845 22.692 24.9615 22.5945 25.0559C22.4969 25.1503 22.378 25.2197 22.2479 25.2584L5.80139 30.1482C5.65322 30.1922 5.49582 30.1947 5.34632 30.1555C5.19682 30.1162 5.06094 30.0367 4.95347 29.9256C4.84601 29.8146 4.77107 29.6761 4.73683 29.5254C4.70258 29.3747 4.71032 29.2174 4.75923 29.0708L10.0996 13.0524C10.1379 12.9374 10.2005 12.832 10.2831 12.7433C10.3657 12.6546 10.4664 12.5847 10.5785 12.5384L18.1652 9.4147C18.3194 9.351 18.489 9.33439 18.6527 9.36697C18.8164 9.39955 18.9667 9.47987 19.0848 9.59778L25.2871 15.8015C25.3981 15.9124 25.476 16.0521 25.512 16.2048C25.5481 16.3576 25.5409 16.5173 25.4913 16.6662Z" stroke="#242034" stroke-width="1.99259" stroke-linecap="round" stroke-linejoin="round"/>
<path d="M26.5176 5.08125L29.8469 8.41055C30.097 8.64991 30.2969 8.93683 30.4347 9.25448C30.5725 9.57213 30.6454 9.9141 30.6493 10.2603C30.6531 10.6066 30.5877 10.9501 30.457 11.2707C30.3262 11.5913 30.1328 11.8826 29.888 12.1274C29.6431 12.3722 29.3519 12.5657 29.0312 12.6964C28.7106 12.8272 28.3671 12.8925 28.0209 12.8887C27.6747 12.8849 27.3327 12.8119 27.015 12.6741C26.6974 12.5363 26.4105 12.3365 26.1711 12.0863L22.8404 8.757C22.3706 8.26597 22.1118 7.61053 22.1193 6.93103C22.1268 6.25152 22.4001 5.60196 22.8806 5.12144C23.3611 4.64093 24.0107 4.36766 24.6902 4.36014C25.3697 4.35263 26.0265 4.61147 26.5176 5.08125Z" fill="#242034" stroke="#242034" stroke-width="1.99259" stroke-linecap="round" stroke-linejoin="round"/>
<path d="M17.1916 17.6634C16.9967 17.4616 16.7636 17.3007 16.5059 17.1899C16.2481 17.0792 15.9709 17.0209 15.6904 17.0185C15.4099 17.0161 15.1318 17.0695 14.8721 17.1757C14.6125 17.282 14.3767 17.4388 14.1783 17.6372C13.98 17.8355 13.8231 18.0714 13.7169 18.331C13.6107 18.5906 13.5572 18.8688 13.5597 19.1493C13.5621 19.4298 13.6204 19.707 13.7311 19.9647C13.8418 20.2225 14.0027 20.4556 14.2045 20.6504C14.6029 21.0352 15.1365 21.2482 15.6904 21.2434C16.2443 21.2385 16.7742 21.0164 17.1658 20.6247C17.5575 20.233 17.7797 19.7032 17.7845 19.1493C17.7893 18.5954 17.5764 18.0618 17.1916 17.6634Z" stroke="#242034" stroke-width="1.99259" stroke-linecap="round" stroke-linejoin="round"/>
</svg>
