<svg width="23" height="23" viewBox="0 0 23 23" fill="none" xmlns="http://www.w3.org/2000/svg">
<g clip-path="url(#clip0_2003_3117)">
<path fill-rule="evenodd" clip-rule="evenodd" d="M11.2996 1.06934C16.9051 1.06934 21.4489 5.61316 21.4489 11.2186C21.4489 16.824 16.9051 21.3678 11.2996 21.3678C5.69421 21.3678 1.15039 16.824 1.15039 11.2186C1.15039 5.61316 5.69421 1.06934 11.2996 1.06934ZM12.9408 13.2322C10.3537 13.9939 8.09199 15.5915 6.5092 17.775C7.89854 18.7934 9.57703 19.341 11.2996 19.338C12.3534 19.3387 13.3972 19.1343 14.3728 18.7361C14.0525 16.8639 13.5734 15.0222 12.9408 13.2312V13.2322ZM14.9483 12.8232C15.4882 14.3892 15.9226 16.005 16.2413 17.6623C17.7306 16.5208 18.7785 14.8987 19.2069 13.0718C17.8128 12.7412 16.3715 12.657 14.9483 12.8232ZM11.6559 10.1143C8.94025 11.0726 6.04524 11.4137 3.18126 11.113L3.18024 11.2186C3.18024 13.1743 3.87242 14.9687 5.02436 16.3703C6.82698 13.9776 9.33881 12.2149 12.2019 11.3333C12.028 10.9237 11.846 10.5177 11.6559 10.1154V10.1143ZM17.8845 6.46772C16.5702 7.61597 15.1062 8.5805 13.5325 9.33489C13.77 9.84235 13.996 10.3556 14.2104 10.8745C15.9358 10.6106 17.7119 10.6655 19.417 11.0379C19.3831 9.39407 18.8485 7.79968 17.8845 6.46772ZM7.82251 3.88068C6.76173 4.38482 5.82262 5.11256 5.06965 6.01392C4.31667 6.91528 3.76768 7.96891 3.46036 9.10247C5.91182 9.35052 8.388 9.07374 10.7242 8.29053C9.87449 6.74653 8.90425 5.272 7.82251 3.88068ZM11.2996 3.09919C10.8118 3.09919 10.3365 3.1408 9.87367 3.22402C10.8899 4.58919 11.8067 6.02563 12.617 7.52223C14.0198 6.85447 15.326 6.0003 16.5001 4.98289C15.0418 3.76341 13.2006 3.0965 11.2996 3.09919Z" fill="#613AF7"/>
</g>
<defs>
<clipPath id="clip0_2003_3117">
<rect width="22.3125" height="22.3125" fill="white" transform="translate(0.140625 0.139648)"/>
</clipPath>
</defs>
</svg>
