<svg width="22" height="22" viewBox="0 0 22 22" fill="none" xmlns="http://www.w3.org/2000/svg">
<path d="M20.089 15.7247V6.27471C20.089 5.40321 19.3855 4.69971 18.514 4.69971H3.80352C2.93202 4.69971 2.22852 5.40321 2.22852 6.27471V15.7247C2.22852 16.5962 2.93202 17.2997 3.80352 17.2997H18.514C19.3855 17.2997 20.089 16.5962 20.089 15.7247ZM18.7135 6.15921C19.06 6.50571 18.871 6.86271 18.682 7.04121L14.419 10.9472L18.514 15.2102C18.64 15.3572 18.724 15.5882 18.577 15.7457C18.4405 15.9137 18.1255 15.9032 17.989 15.7982L13.4005 11.8817L11.1535 13.9292L8.91702 11.8817L4.32852 15.7982C4.19202 15.9032 3.87702 15.9137 3.74052 15.7457C3.59352 15.5882 3.67752 15.3572 3.80352 15.2102L7.89852 10.9472L3.63552 7.04121C3.44652 6.86271 3.25752 6.50571 3.60402 6.15921C3.95052 5.81271 4.30752 5.98071 4.60152 6.23271L11.1535 11.5247L17.716 6.23271C18.01 5.98071 18.367 5.81271 18.7135 6.15921Z" fill="#613AF7"/>
</svg>
