<svg width="23" height="22" viewBox="0 0 23 22" fill="none" xmlns="http://www.w3.org/2000/svg">
<path fill-rule="evenodd" clip-rule="evenodd" d="M8.65525 0C8.06194 0 7.57329 0.488628 7.57329 1.08194V5.66484C7.57329 5.78479 7.51404 5.89621 7.41486 5.9635C7.31556 6.03079 7.19031 6.04446 7.07885 6.00006L3.42731 4.4871C3.2903 4.43027 3.14733 4.40467 3.00678 4.40612C2.58525 4.41047 2.18388 4.66212 2.01353 5.07318L0.0814922 9.73766C-0.145522 10.2858 0.118362 10.9254 0.666898 11.1515L5.09565 12.9772C5.19724 13.0193 5.27355 13.1047 5.30414 13.2104C5.33473 13.316 5.31541 13.4284 5.25198 13.5182L2.35279 17.1873C1.99166 17.658 2.0815 18.3435 2.55211 18.7046L6.55802 21.7786C7.0286 22.1398 7.71422 22.0493 8.07529 21.5785L10.8943 18.0101C10.9627 17.9209 11.0679 17.8692 11.1803 17.8692C11.2926 17.8692 11.3978 17.9209 11.4662 18.0101L14.2852 21.5785C14.6464 22.0491 15.3318 22.1398 15.8025 21.7786L19.8084 18.7046C20.279 18.3435 20.3689 17.6581 20.0077 17.1873L17.1086 13.5182C17.0451 13.4285 17.0259 13.316 17.0564 13.2104C17.087 13.1047 17.1633 13.0193 17.2648 12.9772L21.6936 11.1515C22.2422 10.9254 22.506 10.2859 22.279 9.73766L20.3468 5.07318C20.1765 4.66214 19.7751 4.41049 19.3536 4.40612C19.213 4.40467 19.0701 4.43044 18.9331 4.4871L15.2815 6.00006C15.1701 6.04452 15.0448 6.03079 14.9455 5.9635C14.8458 5.89621 14.7865 5.78479 14.7865 5.66484V1.08194C14.7865 0.488628 14.2979 0 13.7046 0H8.65525Z" fill="#FF7B32"/>
</svg>
