<svg width="36" height="36" viewBox="0 0 36 36" fill="none" xmlns="http://www.w3.org/2000/svg">
<ellipse cx="17.8345" cy="17.9996" rx="17.2348" ry="17.3333" fill="white"/>
<g clip-path="url(#clip0_2003_3027)">
<path d="M12.5375 24.8654V17.7589L10.3347 15.7427L8.35938 14.6238V23.6113C8.35938 24.3052 8.9213 24.8654 9.61285 24.8654H12.5375Z" fill="#4285F4"/>
<path d="M22.5645 24.8654H25.4891C26.1828 24.8654 26.7426 24.3031 26.7426 23.6112V14.6238L24.5052 15.9053L22.5645 17.7589V24.8654Z" fill="#34A853"/>
<path d="M12.5361 17.758L12.2363 14.9813L12.5361 12.3237L17.5498 16.086L22.5636 12.3237L22.8989 14.8378L22.5636 17.758L17.5498 21.5203L12.5361 17.758Z" fill="#EA4335"/>
<path d="M22.5645 12.3238V17.7581L26.7426 14.6229V12.9508C26.7426 11.3999 24.9732 10.5159 23.7344 11.4459L22.5645 12.3238Z" fill="#FBBC04"/>
<path d="M8.35938 14.6229L10.281 16.0649L12.5375 17.7581V12.3238L11.3676 11.446C10.1267 10.5158 8.35938 11.4 8.35938 12.9507V14.6229Z" fill="#C5221F"/>
</g>
<defs>
<clipPath id="clip0_2003_3027">
<rect width="18.3838" height="13.8667" fill="white" transform="translate(8.35938 11.0662)"/>
</clipPath>
</defs>
</svg>
