<svg width="21" height="21" viewBox="0 0 21 21" fill="none" xmlns="http://www.w3.org/2000/svg">
<path d="M11.6352 0.502188C12.3535 0.499431 13.0718 0.506651 13.7899 0.523843L13.9809 0.530734C14.2014 0.538608 14.4189 0.548452 14.6817 0.560264C15.7291 0.609481 16.4437 0.77485 17.0707 1.01798C17.7204 1.26801 18.2677 1.60662 18.815 2.15391C19.3154 2.6457 19.7027 3.24057 19.9499 3.89718C20.193 4.52421 20.3584 5.23982 20.4076 6.28716C20.4194 6.549 20.4293 6.76752 20.4372 6.98801L20.4431 7.17898C20.4606 7.89675 20.4681 8.61473 20.4657 9.33272L20.4667 10.067V11.3565C20.4691 12.0748 20.4616 12.7931 20.4441 13.5112L20.4381 13.7022C20.4303 13.9227 20.4204 14.1402 20.4086 14.4031C20.3594 15.4504 20.1921 16.165 19.9499 16.7921C19.7035 17.4494 19.3161 18.0447 18.815 18.5363C18.3228 19.0367 17.7276 19.4239 17.0707 19.6713C16.4437 19.9144 15.7291 20.0798 14.6817 20.129C14.4189 20.1408 14.2014 20.1506 13.9809 20.1585L13.7899 20.1644C13.0718 20.1819 12.3535 20.1895 11.6352 20.1871L10.9009 20.188H9.61236C8.89405 20.1905 8.17574 20.1829 7.45764 20.1654L7.26667 20.1595C7.033 20.151 6.79938 20.1412 6.56582 20.13C5.51848 20.0807 4.80385 19.9134 4.17584 19.6713C3.51898 19.4245 2.92399 19.0372 2.43257 18.5363C1.93159 18.0444 1.54393 17.4492 1.29664 16.7921C1.05351 16.165 0.888142 15.4504 0.838925 14.4031C0.827963 14.1695 0.818119 13.9359 0.809395 13.7022L0.804473 13.5112C0.786326 12.7932 0.778122 12.0748 0.779865 11.3565V9.33272C0.777118 8.61474 0.784337 7.89676 0.80152 7.17898L0.808411 6.98801C0.816286 6.76752 0.826129 6.549 0.837941 6.28716C0.887158 5.23884 1.05253 4.52519 1.29566 3.89718C1.5431 3.24025 1.93151 2.64554 2.43356 2.1549C2.92464 1.65362 3.51925 1.26562 4.17584 1.01798C4.80385 0.77485 5.5175 0.609481 6.56582 0.560264L7.26667 0.530734L7.45764 0.525812C8.1754 0.507673 8.89338 0.49947 9.61138 0.501203L11.6352 0.502188ZM10.6233 5.4239C9.97116 5.41467 9.32371 5.53515 8.71855 5.77833C8.1134 6.0215 7.56261 6.38252 7.0982 6.84042C6.63379 7.29831 6.26501 7.84394 6.0133 8.44559C5.76159 9.04725 5.63197 9.69293 5.63197 10.3451C5.63197 10.9973 5.76159 11.643 6.0133 12.2446C6.26501 12.8463 6.63379 13.3919 7.0982 13.8498C7.56261 14.3077 8.1134 14.6687 8.71855 14.9119C9.32371 15.1551 9.97116 15.2755 10.6233 15.2663C11.9286 15.2663 13.1805 14.7478 14.1035 13.8248C15.0265 12.9018 15.545 11.6499 15.545 10.3446C15.545 9.0393 15.0265 7.78745 14.1035 6.86445C13.1805 5.94145 11.9286 5.4239 10.6233 5.4239ZM10.6233 7.39258C11.0155 7.38535 11.4053 7.45636 11.7698 7.60146C12.1343 7.74656 12.4663 7.96285 12.7463 8.23768C13.0263 8.51251 13.2487 8.84038 13.4005 9.20214C13.5524 9.56389 13.6306 9.95228 13.6307 10.3446C13.6308 10.7369 13.5527 11.1254 13.4009 11.4872C13.2492 11.849 13.0269 12.1769 12.747 12.4518C12.4671 12.7268 12.1352 12.9432 11.7708 13.0884C11.4063 13.2336 11.0165 13.3047 10.6243 13.2976C9.84107 13.2976 9.08996 12.9865 8.53616 12.4327C7.98236 11.8789 7.67124 11.1278 7.67124 10.3446C7.67124 9.56143 7.98236 8.81031 8.53616 8.25651C9.08996 7.70272 9.84107 7.39159 10.6243 7.39159L10.6233 7.39258ZM15.7911 3.94738C15.4735 3.96009 15.1732 4.09518 14.953 4.32436C14.7328 4.55353 14.6099 4.85902 14.6099 5.17683C14.6099 5.49464 14.7328 5.80012 14.953 6.02929C15.1732 6.25847 15.4735 6.39356 15.7911 6.40627C16.1174 6.40627 16.4304 6.27663 16.6611 6.04588C16.8919 5.81514 17.0215 5.50217 17.0215 5.17584C17.0215 4.84951 16.8919 4.53655 16.6611 4.3058C16.4304 4.07505 16.1174 3.94541 15.7911 3.94541V3.94738Z" fill="#613AF7"/>
</svg>
