<svg width="21" height="20" viewBox="0 0 21 20" fill="none" xmlns="http://www.w3.org/2000/svg">
<path d="M4.89561 2.85605C4.89534 3.3975 4.67998 3.91667 4.29693 4.29935C3.91387 4.68202 3.39449 4.89685 2.85303 4.89658C2.31158 4.89631 1.79241 4.68096 1.40974 4.2979C1.02706 3.91485 0.81223 3.39546 0.8125 2.85401C0.812771 2.31256 1.02812 1.79339 1.41118 1.41071C1.79424 1.02804 2.31362 0.813206 2.85507 0.813477C3.39653 0.813748 3.9157 1.0291 4.29837 1.41216C4.68105 1.79521 4.89588 2.3146 4.89561 2.85605ZM4.95685 6.40835H0.873747V19.1885H4.95685V6.40835ZM11.4082 6.40835H7.34547V19.1885H11.3673V12.482C11.3673 8.74593 16.2364 8.39887 16.2364 12.482V19.1885H20.2685V11.0937C20.2685 4.79553 13.0618 5.03031 11.3673 8.12326L11.4082 6.40835Z" fill="#613AF7"/>
</svg>
