<svg width="66" height="66" viewBox="0 0 66 66" fill="none" xmlns="http://www.w3.org/2000/svg">
<path d="M47.1698 41.5094H44.1887L43.1321 40.4906C46.9583 36.0531 49.0611 30.3876 49.0566 24.5283C49.0566 19.6771 47.618 14.9348 44.9228 10.9011C42.2276 6.86746 38.3968 3.72361 33.9149 1.86712C29.4329 0.0106277 24.5011 -0.475114 19.7431 0.471315C14.985 1.41775 10.6145 3.75384 7.18418 7.18418C3.75384 10.6145 1.41775 14.985 0.471315 19.7431C-0.475114 24.5011 0.0106277 29.4329 1.86712 33.9149C3.72361 38.3968 6.86746 42.2276 10.9011 44.9228C14.9348 47.618 19.6771 49.0566 24.5283 49.0566C30.6038 49.0566 36.1887 46.8302 40.4906 43.1321L41.5094 44.1887V47.1698L60.3774 66L66 60.3774L47.1698 41.5094ZM24.5283 41.5094C15.1321 41.5094 7.54718 33.9245 7.54718 24.5283C7.54718 15.1321 15.1321 7.54718 24.5283 7.54718C33.9245 7.54718 41.5094 15.1321 41.5094 24.5283C41.5094 33.9245 33.9245 41.5094 24.5283 41.5094Z" fill="#302655"/>
</svg>
