<svg width="206" height="144" viewBox="0 0 206 144" fill="none" xmlns="http://www.w3.org/2000/svg">
<rect width="206" height="144" rx="5.42857" fill="#FFFAF5"/>
<mask id="mask0_2003_5656" style="mask-type:alpha" maskUnits="userSpaceOnUse" x="0" y="0" width="46" height="45">
<rect y="0.00012207" width="45.13" height="44.3383" fill="#D9D9D9"/>
</mask>
<g mask="url(#mask0_2003_5656)">
<path d="M-3.60538 39.369L-3.61267 39.372L-3.6199 39.3751C-4.85339 39.9104 -6.61692 40.835 -8.31537 41.7753C-8.62852 41.9439 -9.03168 41.88 -9.35874 41.5851C-9.68572 41.2904 -9.77259 40.9177 -9.63879 40.613L-9.63872 40.6131L-9.63448 40.603C-8.90788 38.8871 -8.1106 36.9673 -7.74139 35.6883C-3.52576 21.6477 -5.788 6.1279 -13.8429 -7.00183L-13.8445 -7.00441C-14.0917 -7.40409 -13.9985 -7.72226 -13.8308 -7.90535C-13.6579 -8.09416 -13.3175 -8.231 -12.8607 -8.02082C1.0597 -1.40047 16.805 -0.830249 30.3938 -6.41307L30.401 -6.41606L30.4083 -6.4192C31.6417 -6.9545 33.4052 -7.87903 35.1037 -8.81934C35.4168 -8.98796 35.82 -8.92406 36.1471 -8.6292C36.4741 -8.33444 36.561 -7.96178 36.4272 -7.65711L36.4271 -7.65714L36.4229 -7.64712C35.6963 -5.93129 34.8991 -4.01165 34.5298 -2.73262C30.3141 11.308 32.5763 26.828 40.6312 39.9578L40.6328 39.9603C40.8801 40.36 40.7869 40.6782 40.6192 40.8613C40.4463 41.0501 40.1059 41.1869 39.6491 40.9768C25.7287 34.3564 9.9834 33.7862 -3.60538 39.369Z" stroke="#FFF5E2" stroke-width="1.62857"/>
</g>
<mask id="mask1_2003_5656" style="mask-type:alpha" maskUnits="userSpaceOnUse" x="156" y="58" width="50" height="85">
<rect x="156.927" y="58.9092" width="49.0733" height="84" fill="#D9D9D9"/>
</mask>
<g mask="url(#mask1_2003_5656)">
<path d="M165.089 101.175L165.083 101.171L165.076 101.167C163.807 100.432 161.855 99.4851 159.929 98.6052C159.548 98.4256 159.322 97.9908 159.363 97.4727C159.405 96.9539 159.691 96.6004 160.071 96.5107L160.071 96.5108L160.081 96.5081C162.036 96.0181 164.209 95.4572 165.548 94.9414C180.383 89.4132 192.233 77.198 198.228 61.4516L198.229 61.4488C198.425 60.9279 198.791 60.7888 199.079 60.8182C199.377 60.8487 199.748 61.078 199.876 61.6611C203.323 78.2935 213.166 92.5553 226.885 100.865L226.892 100.869L226.898 100.873C228.167 101.608 230.119 102.554 232.045 103.434C232.426 103.614 232.652 104.049 232.611 104.567C232.569 105.086 232.283 105.439 231.904 105.529L231.904 105.529L231.893 105.531C229.938 106.021 227.765 106.582 226.426 107.098C211.591 112.626 199.741 124.842 193.746 140.588L193.745 140.591C193.549 141.112 193.183 141.251 192.895 141.221C192.597 141.191 192.226 140.962 192.098 140.379C188.651 123.746 178.808 109.484 165.089 101.175Z" stroke="#FFF5E2" stroke-width="1.62857"/>
</g>
</svg>
