<svg width="22" height="22" viewBox="0 0 22 22" fill="none" xmlns="http://www.w3.org/2000/svg">
<g clip-path="url(#clip0_2003_3074)">
<path d="M18 3.6394C20.415 6.0194 21.325 9.3444 20.7533 12.4477C21.2317 13.2877 21.5 14.2677 21.5 15.3061C21.5 16.8532 20.8854 18.3369 19.7915 19.4309C18.6975 20.5248 17.2138 21.1394 15.6667 21.1394C14.6283 21.1394 13.6483 20.8711 12.8083 20.3927C9.705 20.9644 6.38 20.0544 4 17.6394C1.585 15.2594 0.675 11.9344 1.24667 8.83107C0.768333 7.99107 0.5 7.01107 0.5 5.97274C0.5 4.42564 1.11458 2.94191 2.20854 1.84795C3.30251 0.753986 4.78624 0.139404 6.33333 0.139404C7.37167 0.139404 8.35167 0.407738 9.19167 0.886071C12.295 0.314404 15.62 1.2244 18 3.6394ZM11.0467 16.6594C14.395 16.6594 16.0633 15.0494 16.0633 12.8794C16.0633 11.4911 15.41 10.0094 12.8783 9.43774L10.5567 8.9244C9.67 8.72607 8.66667 8.45774 8.66667 7.6294C8.66667 6.7894 9.36667 6.20607 10.65 6.20607C13.2517 6.20607 13.0067 7.99107 14.3017 7.99107C14.9783 7.99107 15.5617 7.5944 15.5617 6.90607C15.5617 5.30774 13.0067 4.10607 10.8367 4.10607C8.49167 4.10607 5.98333 5.1094 5.98333 7.7694C5.98333 9.05274 6.43833 10.4177 8.95833 11.0477L12.0967 11.8411C13.0417 12.0744 13.275 12.5994 13.275 13.0894C13.275 13.8827 12.4817 14.6644 11.0467 14.6644C8.235 14.6644 8.62 12.5061 7.115 12.5061C6.43833 12.5061 5.94833 12.9727 5.94833 13.6377C5.94833 14.9327 7.5 16.6594 11.0467 16.6594Z" fill="#613AF7"/>
</g>
<defs>
<clipPath id="clip0_2003_3074">
<rect width="21" height="21" fill="white" transform="translate(0.5 0.139648)"/>
</clipPath>
</defs>
</svg>
