<svg width="22" height="22" viewBox="0 0 22 22" fill="none" xmlns="http://www.w3.org/2000/svg">
<path d="M18.2601 3.33783C18.2601 3.33783 19.9597 2.67502 19.8176 4.28458C19.7707 4.94739 19.3459 7.26746 19.0152 9.77652L17.8821 17.2096C17.8821 17.2096 17.7876 18.2986 16.9375 18.488C16.0879 18.677 14.813 17.8252 14.5767 17.6358C14.3877 17.4936 11.0356 15.363 9.85524 14.3217C9.52449 14.0373 9.14649 13.4695 9.90249 12.8066L14.8602 8.07202C15.4268 7.50327 15.9934 6.17764 13.6326 7.78764L7.02199 12.2851C7.02199 12.2851 6.26643 12.759 4.85024 12.3328L1.78074 11.3856C1.78074 11.3856 0.647613 10.6756 2.58355 9.96552C7.30549 7.74039 13.1133 5.46802 18.2596 3.33739" fill="#613AF7"/>
</svg>
