<svg width="31" height="27" viewBox="0 0 31 27" fill="none" xmlns="http://www.w3.org/2000/svg">
<path d="M16.2354 21.3583C16.2354 21.8371 16.2922 22.3019 16.3633 22.7666H3.43848C2.68427 22.7666 1.96095 22.4699 1.42764 21.9416C0.894335 21.4134 0.594727 20.697 0.594727 19.9499V3.04994C0.594727 2.30292 0.894335 1.58649 1.42764 1.05826C1.96095 0.530031 2.68427 0.233276 3.43848 0.233276H4.86035L7.7041 5.86661H11.9697L9.12598 0.233276H11.9697L14.8135 5.86661H19.0791L16.2354 0.233276H19.0791L21.9228 5.86661H26.1885L23.3447 0.233276H29.0322V14.049C28.1649 13.5561 27.2122 13.2181 26.1885 13.035V8.68328H5.94098L3.43848 3.71186V19.9499H16.3633C16.2922 20.4147 16.2354 20.8794 16.2354 21.3583ZM30.4541 19.795L26.3449 19.4429L24.7666 15.7249L23.1599 19.4429L19.0791 19.795L22.1788 22.4427L21.2119 26.4001L24.7666 24.3017L28.2502 26.4001L27.326 22.4427L30.4541 19.795Z" fill="#242034"/>
</svg>
