<svg width="26" height="26" viewBox="0 0 26 26" fill="none" xmlns="http://www.w3.org/2000/svg">
<path d="M21.9424 4.23861C20.7695 3.0602 19.3726 2.12584 17.8332 1.48998C16.2937 0.854127 14.6425 0.529486 12.9757 0.534981C5.99169 0.534981 0.299596 6.1986 0.299596 13.1477C0.299596 15.3749 0.887992 17.5386 1.98804 19.4477L0.197266 25.9895L6.91266 24.2331C8.76739 25.2386 10.8524 25.7731 12.9757 25.7731C19.9597 25.7731 25.6518 20.1095 25.6518 13.1604C25.6518 9.78768 24.3343 6.6186 21.9424 4.23861ZM12.9757 23.6349C11.0826 23.6349 9.22787 23.1258 7.60339 22.1713L7.21965 21.9422L3.22879 22.9858L4.29046 19.1168L4.03463 18.7222C2.98262 17.0512 2.42412 15.1195 2.42294 13.1477C2.42294 7.36951 7.15569 2.66043 12.9629 2.66043C15.777 2.66043 18.4248 3.75497 20.4074 5.74042C21.3893 6.71261 22.1674 7.86911 22.6966 9.14283C23.2257 10.4166 23.4955 11.7822 23.4901 13.1604C23.5157 18.9386 18.7829 23.6349 12.9757 23.6349ZM18.7573 15.7949C18.4376 15.6422 16.877 14.8786 16.5956 14.764C16.3014 14.6622 16.0968 14.6113 15.8793 14.9168C15.6619 15.2349 15.0607 15.9477 14.8816 16.1513C14.7025 16.3677 14.5106 16.3931 14.1909 16.2277C13.8711 16.0749 12.8478 15.7313 11.6454 14.6622C10.6989 13.8222 10.0721 12.7913 9.88023 12.4731C9.70115 12.155 9.85464 11.9895 10.0209 11.824C10.1616 11.684 10.3407 11.455 10.4942 11.2768C10.6477 11.0986 10.7117 10.9586 10.814 10.755C10.9163 10.5386 10.8651 10.3604 10.7884 10.2077C10.7117 10.055 10.0721 8.50223 9.81627 7.86587C9.56044 7.25496 9.29183 7.33133 9.09996 7.3186H8.48598C8.26853 7.3186 7.93596 7.39496 7.64176 7.71314C7.36035 8.03132 6.54172 8.79496 6.54172 10.3477C6.54172 11.9004 7.68013 13.4022 7.83363 13.6059C7.98712 13.8222 10.0721 17.004 13.2443 18.3658C13.999 18.6968 14.5874 18.8877 15.0479 19.0277C15.8026 19.2695 16.4933 19.2313 17.0433 19.1549C17.6573 19.0658 18.9236 18.3913 19.1794 17.6531C19.4481 16.9149 19.4481 16.2913 19.3585 16.1513C19.269 16.0113 19.0771 15.9477 18.7573 15.7949Z" fill="#19A84F"/>
</svg>
