<svg width="26" height="26" viewBox="0 0 26 26" fill="none" xmlns="http://www.w3.org/2000/svg">
<g clip-path="url(#clip0_2003_3022)">
<path d="M21.8548 4.13829C20.7029 2.98093 19.331 2.06325 17.819 1.43875C16.3071 0.814247 14.6853 0.495403 13.0483 0.5008C6.189 0.5008 0.59855 6.06329 0.59855 12.8883C0.59855 15.0758 1.17644 17.2008 2.25684 19.0758L0.498047 25.5007L7.09352 23.7757C8.91513 24.7632 10.9629 25.2882 13.0483 25.2882C19.9076 25.2882 25.498 19.7257 25.498 12.9008C25.498 9.58828 24.2041 6.47578 21.8548 4.13829ZM13.0483 23.1882C11.189 23.1882 9.36739 22.6882 7.77192 21.7507L7.39503 21.5257L3.47543 22.5507L4.51815 18.7508L4.26689 18.3633C3.23366 16.7221 2.68514 14.8249 2.68398 12.8883C2.68398 7.21328 7.33222 2.58829 13.0357 2.58829C15.7996 2.58829 18.4001 3.66329 20.3473 5.61329C21.3116 6.56811 22.0758 7.70396 22.5956 8.95494C23.1153 10.2059 23.3802 11.5471 23.3749 12.9008C23.4001 18.5758 18.7518 23.1882 13.0483 23.1882ZM18.7267 15.4883C18.4126 15.3383 16.88 14.5883 16.6036 14.4758C16.3146 14.3758 16.1136 14.3258 15.9001 14.6258C15.6865 14.9383 15.096 15.6383 14.9202 15.8383C14.7443 16.0508 14.5558 16.0758 14.2418 15.9133C13.9277 15.7633 12.9227 15.4258 11.7418 14.3758C10.8121 13.5508 10.1965 12.5383 10.0081 12.2258C9.83222 11.9133 9.98297 11.7508 10.1463 11.5883C10.2845 11.4508 10.4604 11.2258 10.6111 11.0508C10.7619 10.8758 10.8247 10.7383 10.9252 10.5383C11.0257 10.3258 10.9754 10.1508 10.9001 10.0008C10.8247 9.85078 10.1965 8.32578 9.94528 7.70078C9.69403 7.10078 9.43021 7.17578 9.24176 7.16328H8.63875C8.42518 7.16328 8.09855 7.23828 7.8096 7.55078C7.53322 7.86328 6.7292 8.61328 6.7292 10.1383C6.7292 11.6633 7.84729 13.1383 7.99805 13.3383C8.1488 13.5508 10.1965 16.6758 13.3121 18.0133C14.0533 18.3383 14.6312 18.5258 15.0835 18.6633C15.8247 18.9008 16.5031 18.8633 17.0433 18.7882C17.6463 18.7008 18.89 18.0383 19.1413 17.3133C19.4051 16.5883 19.4051 15.9758 19.3171 15.8383C19.2292 15.7008 19.0408 15.6383 18.7267 15.4883Z" fill="white"/>
</g>
<defs>
<clipPath id="clip0_2003_3022">
<rect width="25" height="25" fill="white" transform="translate(0.498047 0.500732)"/>
</clipPath>
</defs>
</svg>
