<svg width="36" height="36" viewBox="0 0 36 36" fill="none" xmlns="http://www.w3.org/2000/svg">
<ellipse cx="17.8638" cy="18.0001" rx="17.2348" ry="17.3333" fill="white"/>
<g clip-path="url(#clip0_2003_3058)">
<path d="M7.96266 17.8748C7.96218 19.6225 8.41201 21.3289 9.26736 22.8329L7.88086 27.9718L13.0615 26.5929C14.4944 27.3847 16.0999 27.7996 17.7314 27.7997H17.7357C23.1215 27.7997 27.5056 23.3509 27.5079 17.8827C27.509 15.2329 26.4934 12.7413 24.6481 10.8667C22.8032 8.99229 20.3496 7.95946 17.7353 7.95825C12.3488 7.95825 7.96496 12.4069 7.96274 17.8748" fill="url(#paint0_linear_2003_3058)"/>
<path d="M7.61232 17.8717C7.61177 19.6821 8.07772 21.4496 8.96356 23.0075L7.52734 28.3306L12.8938 26.9022C14.3724 27.7206 16.0372 28.1521 17.7312 28.1527H17.7356C23.3146 28.1527 27.8562 23.5439 27.8586 17.8799C27.8596 15.1349 26.8074 12.5537 24.8963 10.612C22.9849 8.67048 20.4435 7.60049 17.7356 7.59937C12.1556 7.59937 7.61455 12.2076 7.61232 17.8717ZM10.8082 22.7392L10.6078 22.4163C9.76553 21.0567 9.32094 19.4856 9.32158 17.8723C9.32333 13.1645 13.0976 9.33431 17.7387 9.33431C19.9863 9.33528 22.0985 10.2247 23.6872 11.8384C25.2758 13.4522 26.15 15.5975 26.1494 17.8792C26.1474 22.5871 22.373 26.4177 17.7356 26.4177H17.7322C16.2222 26.4169 14.7413 26.0053 13.4498 25.2274L13.1424 25.0423L9.95788 25.8899L10.8082 22.7392Z" fill="url(#paint1_linear_2003_3058)"/>
<path d="M15.2074 13.5768C15.0179 13.1493 14.8185 13.1407 14.6383 13.1332C14.4908 13.1267 14.3221 13.1272 14.1535 13.1272C13.9849 13.1272 13.7108 13.1916 13.4791 13.4484C13.2472 13.7054 12.5938 14.3265 12.5938 15.5897C12.5938 16.853 13.5002 18.0739 13.6265 18.2454C13.753 18.4165 15.3764 21.0918 17.9473 22.121C20.084 22.9763 20.5188 22.8062 20.9825 22.7633C21.4464 22.7206 22.4791 22.1424 22.6898 21.5428C22.9007 20.9433 22.9007 20.4295 22.8375 20.3221C22.7742 20.2151 22.6055 20.1508 22.3526 20.0225C22.0997 19.8941 20.856 19.2729 20.6242 19.1872C20.3923 19.1016 20.2237 19.0588 20.055 19.3159C19.8863 19.5726 19.4019 20.1508 19.2543 20.3221C19.1068 20.4937 18.9592 20.5151 18.7063 20.3866C18.4532 20.2578 17.6386 19.987 16.6722 19.1124C15.9202 18.4318 15.4126 17.5913 15.265 17.3342C15.1174 17.0775 15.2492 16.9384 15.376 16.8104C15.4897 16.6954 15.6291 16.5106 15.7557 16.3607C15.8818 16.2108 15.9239 16.1038 16.0082 15.9325C16.0926 15.7611 16.0504 15.6112 15.9872 15.4828C15.9239 15.3543 15.4323 14.0845 15.2074 13.5768Z" fill="white"/>
</g>
<defs>
<linearGradient id="paint0_linear_2003_3058" x1="989.235" y1="2009.31" x2="989.235" y2="7.95825" gradientUnits="userSpaceOnUse">
<stop stop-color="#1FAF38"/>
<stop offset="1" stop-color="#60D669"/>
</linearGradient>
<linearGradient id="paint1_linear_2003_3058" x1="1024.09" y1="2080.72" x2="1024.09" y2="7.59937" gradientUnits="userSpaceOnUse">
<stop stop-color="#F9F9F9"/>
<stop offset="1" stop-color="white"/>
</linearGradient>
<clipPath id="clip0_2003_3058">
<rect width="20.3313" height="20.8" fill="white" transform="translate(7.52734 7.59961)"/>
</clipPath>
</defs>
</svg>
