<svg width="42" height="42" viewBox="0 0 42 42" fill="none" xmlns="http://www.w3.org/2000/svg">
<circle cx="20.9242" cy="21.2621" r="20.3636" fill="white"/>
<g clip-path="url(#clip0_2003_2984)">
<path d="M29.9424 12.2386C28.7695 11.0602 27.3726 10.1258 25.8332 9.48998C24.2937 8.85413 22.6425 8.52949 20.9757 8.53498C13.9917 8.53498 8.2996 14.1986 8.2996 21.1477C8.2996 23.3749 8.88799 25.5386 9.98804 27.4477L8.19727 33.9895L14.9127 32.2331C16.7674 33.2386 18.8524 33.7731 20.9757 33.7731C27.9597 33.7731 33.6518 28.1095 33.6518 21.1604C33.6518 17.7877 32.3343 14.6186 29.9424 12.2386ZM20.9757 31.6349C19.0826 31.6349 17.2279 31.1258 15.6034 30.1713L15.2196 29.9422L11.2288 30.9858L12.2905 27.1168L12.0346 26.7222C10.9826 25.0512 10.4241 23.1195 10.4229 21.1477C10.4229 15.3695 15.1557 10.6604 20.9629 10.6604C23.777 10.6604 26.4248 11.755 28.4074 13.7404C29.3893 14.7126 30.1674 15.8691 30.6966 17.1428C31.2257 18.4166 31.4955 19.7822 31.4901 21.1604C31.5157 26.9386 26.7829 31.6349 20.9757 31.6349ZM26.7573 23.7949C26.4376 23.6422 24.877 22.8786 24.5956 22.764C24.3014 22.6622 24.0968 22.6113 23.8793 22.9168C23.6619 23.2349 23.0607 23.9477 22.8816 24.1513C22.7025 24.3677 22.5106 24.3931 22.1909 24.2277C21.8711 24.0749 20.8478 23.7313 19.6454 22.6622C18.6989 21.8222 18.0721 20.7913 17.8802 20.4731C17.7011 20.155 17.8546 19.9895 18.0209 19.824C18.1616 19.684 18.3407 19.455 18.4942 19.2768C18.6477 19.0986 18.7117 18.9586 18.814 18.755C18.9163 18.5386 18.8651 18.3604 18.7884 18.2077C18.7117 18.055 18.0721 16.5022 17.8163 15.8659C17.5604 15.255 17.2918 15.3313 17.1 15.3186H16.486C16.2685 15.3186 15.936 15.395 15.6418 15.7131C15.3604 16.0313 14.5417 16.795 14.5417 18.3477C14.5417 19.9004 15.6801 21.4022 15.8336 21.6059C15.9871 21.8222 18.0721 25.004 21.2443 26.3658C21.999 26.6968 22.5874 26.8877 23.0479 27.0277C23.8026 27.2695 24.4933 27.2313 25.0433 27.1549C25.6573 27.0658 26.9236 26.3913 27.1794 25.6531C27.4481 24.9149 27.4481 24.2913 27.3585 24.1513C27.269 24.0113 27.0771 23.9477 26.7573 23.7949Z" fill="#19A84F"/>
</g>
<defs>
<clipPath id="clip0_2003_2984">
<rect width="25.4545" height="25.4545" fill="white" transform="translate(8.19727 8.53491)"/>
</clipPath>
</defs>
</svg>
