<svg width="24" height="24" viewBox="0 0 24 24" fill="none" xmlns="http://www.w3.org/2000/svg">
<path d="M19.4397 4.55628C18.4721 3.58409 17.3197 2.81325 16.0496 2.28867C14.7796 1.76408 13.4173 1.49626 12.0422 1.50079C6.2804 1.50079 1.58442 6.17328 1.58442 11.9063C1.58442 13.7438 2.06985 15.5288 2.97739 17.1037L1.5 22.5007L7.0402 21.0517C8.57035 21.8812 10.2905 22.3222 12.0422 22.3222C17.804 22.3222 22.5 17.6497 22.5 11.9168C22.5 9.13427 21.4131 6.51978 19.4397 4.55628ZM12.0422 20.5582C10.4804 20.5582 8.95025 20.1382 7.61005 19.3507L7.29347 19.1617L4.001 20.0227L4.87688 16.8307L4.66583 16.5053C3.79791 15.1267 3.33716 13.533 3.33618 11.9063C3.33618 7.13927 7.2407 3.25428 12.0317 3.25428C14.3533 3.25428 16.5377 4.15728 18.1734 5.79528C18.9834 6.59733 19.6253 7.55144 20.0619 8.60226C20.4985 9.65309 20.721 10.7797 20.7166 11.9168C20.7377 16.6837 16.8332 20.5582 12.0422 20.5582ZM16.8121 14.0903C16.5482 13.9643 15.2608 13.3343 15.0286 13.2398C14.7859 13.1558 14.6171 13.1138 14.4377 13.3658C14.2583 13.6283 13.7623 14.2163 13.6146 14.3843C13.4668 14.5628 13.3085 14.5838 13.0447 14.4473C12.7809 14.3213 11.9367 14.0378 10.9447 13.1558C10.1638 12.4628 9.64673 11.6123 9.48844 11.3498C9.3407 11.0873 9.46734 10.9508 9.60452 10.8143C9.7206 10.6988 9.86834 10.5098 9.99497 10.3628C10.1216 10.2158 10.1744 10.1003 10.2588 9.93227C10.3432 9.75377 10.301 9.60677 10.2377 9.48077C10.1744 9.35477 9.64673 8.07377 9.43568 7.54877C9.22462 7.04477 9.00301 7.10777 8.84472 7.09727H8.33819C8.15879 7.09727 7.88442 7.16027 7.64171 7.42277C7.40955 7.68527 6.73417 8.31527 6.73417 9.59627C6.73417 10.8773 7.67337 12.1163 7.8 12.2843C7.92663 12.4628 9.64673 15.0878 12.2638 16.2113C12.8864 16.4843 13.3719 16.6418 13.7518 16.7572C14.3744 16.9567 14.9442 16.9252 15.398 16.8622C15.9045 16.7887 16.9492 16.2323 17.1603 15.6233C17.3819 15.0143 17.3819 14.4998 17.308 14.3843C17.2342 14.2688 17.0759 14.2163 16.8121 14.0903Z" fill="#613AF7"/>
</svg>
